<?xml version="1.0" encoding="utf-8"?>
<!-- Generator: Adobe Illustrator 24.2.3, SVG Export Plug-In . SVG Version: 6.00 Build 0)  -->
<svg version="1.1" id="Layer_1" xmlns="http://www.w3.org/2000/svg" xmlns:xlink="http://www.w3.org/1999/xlink" x="0px" y="0px"
	 viewBox="0 0 1102.6 214.2" style="enable-background:new 0 0 1102.6 214.2;" xml:space="preserve">
<style type="text/css">
	.st0{fill:#9680FF;}
	.st1{fill:#1F323B;}
</style>
<g>
	<path class="st0" d="M216.9,112.3c-0.2,4.1-3.6,7.3-7.7,7.3l-70.5,0.3c-6.6,0-11.9,5.3-11.9,11.9c0,0.5,0,1.1,0.1,1.6
		c0.8,6,6.3,10.2,12.4,10.2l59.8-0.2c4.2-0.1,7.7,3.3,7.7,7.5c0,1.2-0.3,2.4-0.8,3.5c-27.3,53.9-93.2,75.4-147,48.1
		c-3.2-1.6-6.3-3.4-9.4-5.3c-3.5-2.3-4.5-7-2.3-10.5c1.4-2.2,3.8-3.5,6.4-3.5l104.6-0.4c6.6,0,11.9-5.3,11.9-11.9
		c0-0.5,0-1.1-0.1-1.6c-0.8-5.9-6.3-10.2-12.4-10.2l-139.2,0.5c-2.9,0-5.6-1.6-6.9-4.2l-0.2-0.3c-1.9-3.8-0.3-8.4,3.5-10.2
		c1.1-0.5,2.2-0.8,3.4-0.8l81.4-0.3c6.6,0,11.9-5.3,11.9-11.9c0-0.5,0-1-0.1-1.5c-0.8-6-6.3-10.2-12.4-10.2l-88,0.3
		c-6.1,0-11.1-5-11.1-11.1v-1.7c-0.1-17.1,4-34,11.9-49.2c1.3-2.6,4-4.1,6.9-4.2l131.6-0.5c6.6,0,11.9-5.3,11.9-11.9
		c0-0.5,0-1-0.1-1.6c-0.8-6-6.3-10.2-12.4-10.2l-94.7,0.4c-7.7,0-10.7-10-4.2-14C102.4-15.4,169.8,0.6,201.5,52
		c0.5,0.8,1,1.6,1.5,2.5c2.1,3.7,0.7,8.3-2.9,10.4c-1.2,0.6-2.5,1-3.8,1L63.1,66.3c-6.6,0-11.9,5.3-11.9,11.9c0,0.5,0,1,0.1,1.6
		c0.8,6,6.3,10.2,12.4,10.2l145.1-0.5c3.9-0.1,7.2,2.8,7.7,6.7c0.4,3.5,0.6,7.1,0.6,10.6C217,108.6,217,110.4,216.9,112.3z"/>
	<path class="st1" d="M285.7,153h-16.1V60.2h16.3l39.7,62.8l2.5,6.1l-0.5-6.6V60.2h16.1V153h-15.7l-40.2-63.5l-2.6-6.1l0.6,6.5
		L285.7,153z"/>
	<path class="st1" d="M364.4,145.1c-6.6-6.5-9.8-15.9-9.8-28v-2c0-3.9,0.4-7.8,1.2-11.6c0.8-3.4,2-6.6,3.7-9.6
		c3.1-5.6,7.7-10.1,13.3-13.1c6-3.1,12.7-4.6,19.5-4.5c3.5,0,7,0.4,10.5,1.1c3.1,0.7,6.2,1.9,9,3.4c5.7,3,10.3,7.6,13.4,13.2
		c3.2,5.8,4.8,12.8,4.8,21v2c0,3.8-0.4,7.6-1.2,11.3c-0.7,3.3-1.9,6.4-3.5,9.3c-3.1,5.5-7.7,10-13.3,12.9
		c-6.1,3.1-12.9,4.6-19.7,4.5C380.2,155,370.9,151.7,364.4,145.1z M407.3,133.9c3.6-4,5.4-9.7,5.4-17.1v-1.7
		c0-7.6-1.8-13.6-5.5-17.8c-3.7-4.3-8.6-6.4-14.8-6.4c-6.1,0-11,2.1-14.8,6.2c-3.8,4.1-5.7,10.1-5.7,18v1.7c0,7.4,1.8,13.1,5.4,17.1
		c3.6,4,8.6,6,14.9,6.1C398.7,140,403.7,138,407.3,133.9z"/>
	<path class="st1" d="M457.3,153h-17.2V78.2h14.4l1.6,15c1.8-4.9,5.1-9.2,9.4-12.2c4.3-3,9.6-4.6,16-4.6c9,0,15.9,2.8,20.6,8.3
		c4.7,5.6,7.1,13,7.1,22.2v46H492v-41.9c0-6.1-1.2-10.9-3.5-14.5s-6.6-5.4-12.6-5.4c-6.3,0-11,2.1-14,6.2c-3,4.1-4.5,9.7-4.5,16.6
		V153z"/>
	<path class="st1" d="M529,145.1c-6.6-6.5-9.9-15.9-9.9-28v-2c0-3.9,0.4-7.8,1.2-11.6c0.7-3.4,2-6.6,3.7-9.6
		c3.1-5.6,7.8-10.1,13.5-13.1c6-3.1,12.6-4.6,19.3-4.5c10.3,0,18.8,2.6,25.4,7.7c6.6,5.1,10.3,13.1,11.2,24v0.3h-17.8v-0.4
		c-0.8-5.8-2.8-10.1-6-12.8c-3.2-2.7-7.4-4.1-12.6-4.1c-5.5-0.2-10.9,2.1-14.6,6.2c-3.7,4.1-5.6,10.1-5.6,18v1.7
		c0,7.4,1.8,13.1,5.3,17.1s8.5,6.1,14.7,6.1c5.5,0,9.8-1.4,12.9-4.3c3.1-2.9,5.1-7.2,6-12.9v-0.1h17.8v0.4
		c-0.9,11-4.6,19.1-11.3,24.2S567,155,556.7,155C544.8,155,535.6,151.7,529,145.1z"/>
	<path class="st1" d="M612.2,145.1c-6.6-6.5-9.8-15.9-9.8-28v-2c0-3.9,0.4-7.8,1.2-11.6c0.8-3.4,2-6.6,3.7-9.6
		c3.1-5.6,7.7-10.1,13.3-13.1c6-3.1,12.7-4.6,19.5-4.5c3.5,0,7,0.4,10.5,1.1c3.1,0.7,6.2,1.9,9,3.4c5.7,3,10.3,7.6,13.4,13.2
		c3.2,5.8,4.8,12.8,4.8,21v2c0,3.8-0.4,7.6-1.2,11.3c-0.7,3.3-1.9,6.4-3.5,9.3c-3.1,5.5-7.7,10-13.3,12.9
		c-6.1,3.1-12.9,4.6-19.8,4.4C628,155,618.7,151.7,612.2,145.1z M655.1,133.9c3.6-4,5.4-9.7,5.4-17.1v-1.7c0-7.6-1.8-13.6-5.5-17.8
		s-8.6-6.4-14.8-6.4c-6.1,0-11,2.1-14.8,6.2s-5.7,10.1-5.7,18v1.7c0,7.4,1.8,13.1,5.4,17.1c3.6,4,8.6,6,14.9,6.1
		C646.5,140,651.5,138,655.1,133.9z"/>
	<path class="st1" d="M705,153h-17V78.2h14.3l1.6,13.7c1.9-4.5,5-8.4,8.9-11.3c3.9-2.8,8.9-4.2,14.8-4.2c6.4,0,11.5,1.4,15.3,4.2
		c3.9,2.9,6.7,6.9,8.2,11.5c1.8-4.6,4.9-8.6,9-11.4c4.1-2.8,9.2-4.2,15.2-4.2c8.8,0,15.4,2.6,19.8,7.9s6.7,12.6,6.7,21.9V153h-17
		v-42.2c0-5.9-1.2-10.6-3.5-14.2c-2.3-3.6-6.4-5.4-12.1-5.4c-5.5,0-9.5,1.8-12,5.5s-3.7,8.3-3.7,13.9V153h-16.9v-42.8
		c0-1.7-0.1-3.3-0.3-5c-0.2-1.6-0.6-3.1-1.1-4.6c-0.8-2.7-2.4-5.1-4.6-6.8c-2.2-1.7-5.3-2.5-9.2-2.5c-5.5,0-9.7,2-12.4,6
		s-4,9.2-4,15.7L705,153z"/>
	<path class="st1" d="M841.1,150.6c-4.1-2.6-7.4-6.3-9.5-10.7v38.9h-16.5V78.2h14.2l1.8,15.2c1.9-5,5.2-9.3,9.5-12.4
		c4.3-3.1,9.8-4.7,16.3-4.7c9.7,0,17.5,3.4,23.2,10.1c5.8,6.7,8.6,16.4,8.7,29v1.8c0,3.8-0.3,7.5-1,11.3c-0.6,3.2-1.7,6.4-3.1,9.3
		c-2.4,5.2-6.4,9.6-11.3,12.6c-5.1,2.9-10.8,4.3-16.7,4.2C850.4,154.6,845.2,153.2,841.1,150.6z M866.1,134.1
		c3.6-4,5.3-9.7,5.3-17.1v-1.6c0-8-1.8-14.1-5.5-18.2c-3.6-4.1-8.8-6.4-14.2-6.2c-6.2,0-11.1,2.2-14.8,6.6
		c-3.7,4.4-5.6,10.3-5.6,17.6v1.3c0,7.2,1.8,12.9,5.4,17.2s8.5,6.4,14.6,6.4C857.6,140.1,862.5,138.1,866.1,134.1L866.1,134.1z"/>
	<path class="st1" d="M949.8,138c-2.6,5-6.6,9.2-11.4,12.1c-5.1,3.2-11.5,4.8-19.2,4.8c-8.1,0-14.2-1.8-18.3-5.5
		c-4.1-3.6-6.2-8.5-6.2-14.6c-0.1-3.8,0.8-7.5,2.6-10.9c1.7-3.1,4.2-5.6,7.2-7.5c1-0.7,2.1-1.3,3.2-1.8c1-0.5,2.1-0.9,3.2-1.3
		c2.5-0.9,5.2-1.6,7.8-2.1c3-0.6,6.9-1.3,11.6-2c6.7-0.9,11.5-1.9,14.4-3.2c2.7-0.9,4.5-3.5,4.4-6.4c0.1-2.9-1.2-5.7-3.5-7.4
		c-2.3-1.8-6.4-2.7-12.2-2.7c-6.2,0-10.7,1.3-13.7,3.9s-4.6,6.3-4.8,11.1h-17.6c0.6-8.5,3.9-15.3,10-20.5c6.1-5.2,14.4-7.7,25.1-7.7
		c3.7,0,7.3,0.2,10.9,0.8c2.9,0.4,5.8,1.3,8.5,2.5c4.9,2.1,8.3,5.1,10.5,9c2.2,4.3,3.3,9.1,3.2,13.9V153h-13.8L949.8,138z
		 M931.8,141c2.1-0.5,4.1-1.4,5.9-2.5c3.5-2.1,6.4-5.1,8.4-8.7c1.9-3.2,2.9-6.9,2.9-10.6v-4c-1.9,1.3-4,2.2-6.2,2.9
		c-2.9,0.9-5.9,1.5-8.9,2c-3.4,0.5-6.8,1.1-10.2,2c-2.1,0.6-4.2,1.5-6.1,2.7c-1.4,0.8-2.5,2-3.3,3.4c-0.8,1.4-1.1,2.9-1.1,4.4
		c0,3.1,1,5.5,2.9,7s4.9,2.4,8.8,2.4C927.3,141.9,929.6,141.6,931.8,141z"/>
	<path class="st1" d="M985,145.1c-6.6-6.5-9.9-15.9-9.9-28v-2c0-3.9,0.4-7.8,1.2-11.6c0.8-3.4,2-6.6,3.7-9.6
		c3.1-5.6,7.8-10.1,13.5-13.1c6-3.1,12.6-4.6,19.3-4.5c10.3,0,18.8,2.6,25.4,7.7c6.6,5.1,10.3,13.1,11.2,24v0.3h-17.8v-0.4
		c-0.8-5.8-2.8-10.1-6-12.8c-3.2-2.7-7.4-4.1-12.6-4.1c-5.5-0.2-10.9,2.1-14.6,6.2c-3.7,4.1-5.6,10.1-5.6,18v1.7
		c0,7.4,1.8,13.1,5.3,17.1s8.5,6,14.7,6.1c5.5,0,9.8-1.4,12.9-4.3s5.1-7.2,6-12.9v-0.1h17.8v0.4c-0.9,11-4.6,19.1-11.3,24.2
		s-15.2,7.7-25.5,7.7C1000.8,155,991.6,151.7,985,145.1z"/>
	<path class="st1" d="M1102.6,153h-9.6c-3.1,0-6.2-0.2-9.3-0.7c-2.4-0.4-4.7-1-6.8-2c-3.8-1.9-6.5-5.3-7.7-9.4
		c-1.4-4.3-2.1-10.3-2.2-17.8V93.3h-14.6V78.8h6.6c1,0,2.1-0.1,3.1-0.2c0.8-0.1,1.5-0.3,2.2-0.6c1.3-0.7,2.2-1.9,2.6-3.2
		c0.6-2.2,1-4.6,1-6.9c0.1-1.7,0.2-3.4,0.2-5.3s0.1-3.4,0.1-4.6h14.6v20.2h19.8v15.1h-19.8v26.9c0,2.4,0.1,4.6,0.3,6.4
		c0.1,1.6,0.4,3.1,0.8,4.6c0.4,2.2,1.9,4,4,4.8c3,0.9,6.2,1.2,9.4,1.1h5.3L1102.6,153z"/>
</g>
</svg>
