<?xml version="1.0" encoding="utf-8"?>
<!-- Generator: Adobe Illustrator 25.0.0, SVG Export Plug-In . SVG Version: 6.00 Build 0)  -->
<svg version="1.1" id="Layer_1" xmlns="http://www.w3.org/2000/svg" xmlns:xlink="http://www.w3.org/1999/xlink" x="0px" y="0px"
	 viewBox="0 0 500 102" style="enable-background:new 0 0 500 102;" xml:space="preserve">
<style type="text/css">
	.st0{fill:#22313D;}
	.st1{fill:none;}
	.st2{fill:#977AE5;}
	.st3{fill:#FFFFFF;}
</style>
<polygon class="st0" points="31.9,62.6 7.6,25.9 0,25.9 0,75.7 7.4,75.7 7.4,39 31.6,75.4 31.8,75.7 39.4,75.7 39.4,25.9 31.9,25.9 
	"/>
<path class="st0" d="M72.7,25.1c-7,0-12.8,2.4-17.2,7.1c-4.4,4.7-6.7,11-6.7,18.6c0,7.7,2.3,13.9,6.7,18.6
	c4.5,4.7,10.2,7.1,17.2,7.1c6.9,0,12.7-2.4,17.1-7.1c4.4-4.7,6.7-11,6.7-18.6c0-7.7-2.2-13.9-6.7-18.6
	C85.4,27.4,79.7,25.1,72.7,25.1z M88.5,50.8c0,6-1.5,10.7-4.5,14c-2.9,3.3-6.8,4.9-11.4,4.9c-4.6,0-8.4-1.7-11.4-4.9
	c-3-3.3-4.5-8-4.5-13.9c0-6,1.5-10.7,4.5-14S68,32,72.7,32c4.6,0,8.4,1.7,11.3,4.9C87,40.1,88.5,44.8,88.5,50.8z"/>
<polygon class="st0" points="138,62.6 113.6,25.9 106,25.9 106,75.7 113.5,75.7 113.5,39 137.6,75.4 137.8,75.7 145.4,75.7 
	145.4,25.9 138,25.9 "/>
<path class="st1" d="M178.3,31.9c3.5,0,6.4,0.9,8.6,2.6c2.3,1.7,3.5,3.9,3.7,6.8l0.1,0.6h8l-0.1-0.7c-0.5-4.8-2.7-8.8-6.5-11.7
	c-3.8-2.9-8.5-4.4-13.9-4.4c-7,0-12.7,2.3-16.9,7c-4.2,4.6-6.3,10.9-6.3,18.7c0,7.8,2.1,14.1,6.3,18.7s9.9,7,16.9,7
	c5.6,0,10.3-1.5,14-4.4s5.9-7.1,6.3-12.4l0.1-0.7h-8l-0.1,0.6c-0.3,3.2-1.5,5.7-3.7,7.5c-2.2,1.7-5.2,2.6-8.8,2.6
	c-4.6,0-8.4-1.6-11-4.8c-2.7-3.3-4.1-8-4.1-14c0-6.1,1.4-10.8,4.1-14.1C169.9,33.5,173.6,31.9,178.3,31.9z"/>
<path class="st1" d="M232.7,25.1c-7,0-12.8,2.4-17.2,7.1c-4.4,4.7-6.7,11-6.7,18.6c0,7.7,2.3,13.9,6.7,18.6
	c4.5,4.7,10.2,7.1,17.2,7.1c6.9,0,12.7-2.4,17.1-7.1s6.7-11,6.7-18.6c0-7.7-2.2-13.9-6.7-18.6C245.4,27.4,239.6,25.1,232.7,25.1z
	 M248.5,50.8c0,6-1.5,10.7-4.5,14c-2.9,3.3-6.8,4.9-11.4,4.9s-8.4-1.7-11.4-4.9c-3-3.3-4.5-8-4.5-13.9c0-6,1.5-10.7,4.5-14
	S228,32,232.7,32c4.6,0,8.4,1.7,11.3,4.9C247,40.1,248.5,44.8,248.5,50.8z"/>
<polygon class="st0" points="290.7,64.8 278.1,25.9 267.3,25.9 267.3,75.7 274.8,75.7 274.8,38 287.4,75.7 294.1,75.7 306.8,38 
	306.8,75.7 314.2,75.7 314.2,25.9 303.4,25.9 "/>
<path class="st0" d="M361.6,32.1c-1.7-2.6-3.9-4.3-6.8-5.1c-2.7-0.8-6.1-1.1-10.1-1.1h-18.8v49.8h7.8V56.3h11.5c6,0,10.7-1.3,13.9-4
	c3.3-2.7,4.9-6.6,4.9-11.7C364.1,37.6,363.2,34.7,361.6,32.1z M353.7,47.1c-1.6,1.4-4.4,2.1-8.4,2.1h-11.6V33h11.5
	c2.7,0,4.8,0.2,6.3,0.6c1.3,0.4,2.4,1.2,3.3,2.6c0.9,1.4,1.3,3,1.3,4.8C356.1,43.6,355.3,45.7,353.7,47.1z"/>
<path class="st0" d="M382.2,25.9l-19.1,49.8h8.2l5.4-14.7H396l5.6,14.7h8.7L390,25.9H382.2z M393.6,54.5h-14.7l7.2-19.8L393.6,54.5z
	"/>
<path class="st0" d="M435.2,31.9c3.5,0,6.4,0.9,8.6,2.6c2.3,1.7,3.5,3.9,3.7,6.8l0.1,0.6h8l-0.1-0.7c-0.5-4.8-2.7-8.8-6.5-11.7
	c-3.8-2.9-8.5-4.4-13.9-4.4c-7,0-12.7,2.3-16.9,7c-4.2,4.6-6.3,10.9-6.3,18.7c0,7.8,2.1,14.1,6.3,18.7c4.2,4.6,9.9,7,16.9,7
	c5.6,0,10.3-1.5,14-4.4s5.9-7.1,6.3-12.4l0.1-0.7h-8l-0.1,0.6c-0.3,3.2-1.5,5.7-3.7,7.5c-2.2,1.7-5.2,2.6-8.8,2.6
	c-4.7,0-8.3-1.6-11-4.8c-2.7-3.3-4.1-8-4.1-14c0-6.1,1.4-10.8,4.1-14.1C426.8,33.5,430.6,31.9,435.2,31.9z"/>
<polygon class="st0" points="460.3,25.9 460.3,33 476.2,33 476.2,75.7 484,75.7 484,33 500,33 500,25.9 "/>
<circle class="st2" cx="206.1" cy="51" r="51"/>
<circle class="st3" cx="216.7" cy="50.6" r="43"/>
<circle class="st2" cx="227.5" cy="50.9" r="29.7"/>
<circle class="st3" cx="233.5" cy="50.9" r="19.3"/>
</svg>
