<svg xmlns="http://www.w3.org/2000/svg" xmlns:xlink="http://www.w3.org/1999/xlink" viewBox="0 0 660.73 122.44"><defs><style>.f0b97e0a-eaf0-43b9-90b4-0adc8aa06769{fill:none;}.a656c4cd-9d92-439d-8178-ebdff3e3ef04{fill:#1e2b33;}.e460a2ea-ac2c-44f3-bc77-9dca6a8cef0c{fill:#9283f7;}.a3848e06-bc49-4c78-bd77-0fa44b56d87c{clip-path:url(#e7aeaa11-de36-4e59-853f-2fc3922e0297);}.acf757af-8759-4869-827d-80a161d592a1{fill:#fff;}</style><clipPath id="e7aeaa11-de36-4e59-853f-2fc3922e0297" transform="translate(0 0.15)"><circle class="f0b97e0a-eaf0-43b9-90b4-0adc8aa06769" cx="76.08" cy="61.22" r="42.11"/></clipPath></defs><g id="e6a117fc-c85d-44a4-81b8-331adbb3b4c3" data-name="Layer 2"><g id="bcc99639-9738-48ad-8e62-f0fd12866abc" data-name="version 24"><polygon class="a656c4cd-9d92-439d-8178-ebdff3e3ef04" points="198.06 79.74 165.09 30.07 154.74 30.07 154.74 97.73 164.9 97.73 164.9 48.06 197.87 97.73 208.27 97.73 208.27 30.07 198.06 30.07 198.06 79.74"/><path class="a656c4cd-9d92-439d-8178-ebdff3e3ef04" d="M240,47c-7,0-12.69,2.29-16.91,6.81s-6.33,10.9-6.33,19,2.13,14.51,6.33,19S233,98.7,240,98.7s12.74-2.3,17-6.83,6.33-10.91,6.33-19-2.13-14.54-6.33-19S247.07,47,240,47Zm9.08,38.89a11.82,11.82,0,0,1-18.16,0c-2.35-2.87-3.55-7.26-3.55-13.05s1.2-10.21,3.55-13.09a11.84,11.84,0,0,1,18.16,0c2.36,2.88,3.55,7.28,3.55,13.09S251.48,83,249.12,85.9Z" transform="translate(0 0.15)"/><path class="a656c4cd-9d92-439d-8178-ebdff3e3ef04" d="M294,47c-4.84,0-9.29,1.92-13.26,5.71V48.09H270.32V97.58h10.39V62.89c4-4.65,8-7,12-7,2.85,0,4.9.75,6.09,2.21s1.87,4.14,1.87,7.78V97.58H311V65.5C311,53.23,305.29,47,294,47Z" transform="translate(0 0.15)"/><path class="a656c4cd-9d92-439d-8178-ebdff3e3ef04" d="M340.87,55.52a11,11,0,0,1,6.72,2,7.1,7.1,0,0,1,2.82,5.77l0,.92h10.7L361,63.18c-.66-5.2-2.86-9.25-6.54-12A22,22,0,0,0,340.87,47c-7,0-12.68,2.29-16.91,6.81s-6.33,10.9-6.33,19,2.13,14.51,6.33,19,9.91,6.83,16.91,6.83a22,22,0,0,0,13.61-4.14c3.68-2.78,5.88-6.83,6.54-12l.13-1.08h-10.7l0,.92a7,7,0,0,1-2.82,5.73,11.91,11.91,0,0,1-15.8-2.2c-2.35-2.87-3.55-7.26-3.55-13.05s1.2-10.21,3.55-13.09A11.08,11.08,0,0,1,340.87,55.52Z" transform="translate(0 0.15)"/><path class="a656c4cd-9d92-439d-8178-ebdff3e3ef04" d="M387.28,47c-7,0-12.69,2.29-16.91,6.81s-6.33,10.9-6.33,19,2.13,14.51,6.33,19,9.91,6.83,16.91,6.83,12.74-2.3,17-6.83,6.33-10.91,6.33-19-2.13-14.54-6.33-19S394.31,47,387.28,47Zm9.08,38.89a11.82,11.82,0,0,1-18.16,0c-2.36-2.87-3.55-7.26-3.55-13.05s1.19-10.21,3.55-13.09a11.84,11.84,0,0,1,18.16,0c2.36,2.88,3.55,7.28,3.55,13.09S398.72,83,396.36,85.9Z" transform="translate(0 0.15)"/><path class="a656c4cd-9d92-439d-8178-ebdff3e3ef04" d="M468.2,47a16.64,16.64,0,0,0-6.9,1.59c-2.11.95-4.52,3-7.36,6.15-2.3-5.14-6.88-7.74-13.63-7.74-4.47,0-8.62,1.89-12.36,5.63V48.09H417.56V97.58H428V62.87c3.64-4.64,7.36-7,11.06-7,2.37,0,4,.69,4.95,2.1s1.53,4.16,1.53,7.89V97.58h10.35V62.87c3.67-4.64,7.41-7,11.1-7,2.35,0,3.95.69,4.91,2.1s1.54,4.16,1.54,7.89V97.58h10.39V65.5C483.78,53.23,478.54,47,468.2,47Z" transform="translate(0 0.15)"/><path class="a656c4cd-9d92-439d-8178-ebdff3e3ef04" d="M516,47a17.58,17.58,0,0,0-12.63,5.28v-4.2H493v67.78h10.39V95a19.88,19.88,0,0,0,12,3.74,19,19,0,0,0,15.15-7.13c3.95-4.69,5.94-11.12,5.94-19.12,0-7.68-1.78-13.89-5.31-18.45S522.51,47,516,47Zm-.77,8.51A8.73,8.73,0,0,1,523,59.64c1.92,2.86,2.89,7.17,2.89,12.81,0,6-1,10.48-3.06,13.43a9.09,9.09,0,0,1-7.91,4.27,15.68,15.68,0,0,1-11.51-5.21V63C507,58,511,55.52,515.24,55.52Z" transform="translate(0 0.15)"/><path class="a656c4cd-9d92-439d-8178-ebdff3e3ef04" d="M578.34,50.82C574.78,48.29,569.8,47,563.52,47c-13.59,0-20.83,5.24-21.49,15.56l-.06,1h10.36l0-.92c.22-4.81,3.72-7.15,10.71-7.15,3.38,0,5.86.46,7.34,1.38A5.23,5.23,0,0,1,573,60.13a32.66,32.66,0,0,1,.5,6.25h-3.16c-19.71,0-29.7,5.94-29.7,17.64a13.26,13.26,0,0,0,4.92,10.62,18.54,18.54,0,0,0,12.27,4.06c6.19,0,11.46-1.65,15.68-4.9v3.78h10.34V65.86C583.85,58.48,582,53.42,578.34,50.82Zm-9.66,23.71h4.83v9.28a14.73,14.73,0,0,1-5.6,4.55,17.48,17.48,0,0,1-7.66,1.79,11.29,11.29,0,0,1-6.7-1.77,5.52,5.52,0,0,1-2.3-4.81C551.25,77.49,557,74.53,568.68,74.53Z" transform="translate(0 0.15)"/><path class="a656c4cd-9d92-439d-8178-ebdff3e3ef04" d="M613.77,55.52a11,11,0,0,1,6.72,2,7.1,7.1,0,0,1,2.82,5.77l0,.92h10.7l-.14-1.08c-.66-5.2-2.86-9.25-6.54-12A22,22,0,0,0,613.77,47c-7,0-12.69,2.29-16.91,6.81s-6.33,10.9-6.33,19,2.13,14.51,6.33,19,9.91,6.83,16.91,6.83a22,22,0,0,0,13.6-4.14c3.68-2.78,5.88-6.83,6.54-12l.14-1.08h-10.7l0,.92a7,7,0,0,1-2.82,5.73,11.91,11.91,0,0,1-15.8-2.2c-2.36-2.87-3.55-7.26-3.55-13.05s1.19-10.21,3.55-13.09A11.07,11.07,0,0,1,613.77,55.52Z" transform="translate(0 0.15)"/><path class="a656c4cd-9d92-439d-8178-ebdff3e3ef04" d="M659.61,89.36a23,23,0,0,1-4.05.34,3.45,3.45,0,0,1-2.69-1c-.36-.39-1-1.63-1-5.56V56.64h7.71V48.09H651.9V36.25H641.55V48.09h-5.87v8.55h5.87v26a43.35,43.35,0,0,0,.61,8.12,8.71,8.71,0,0,0,3.36,5.35c1.8,1.38,4.48,2.06,8.2,2.06a32.91,32.91,0,0,0,6.24-.56l.77-.15V89.16Z" transform="translate(0 0.15)"/><circle class="e460a2ea-ac2c-44f3-bc77-9dca6a8cef0c" cx="60.87" cy="61.02" r="60.87"/><g class="a3848e06-bc49-4c78-bd77-0fa44b56d87c"><rect class="e460a2ea-ac2c-44f3-bc77-9dca6a8cef0c" x="103.32" width="35.51" height="122"/><rect class="acf757af-8759-4869-827d-80a161d592a1" x="29.41" width="77.26" height="122"/><rect class="acf757af-8759-4869-827d-80a161d592a1" x="95.88" y="115.24" width="7.2" height="7.2" rx="2.16"/><rect class="acf757af-8759-4869-827d-80a161d592a1" x="95.88" y="100.84" width="7.2" height="7.2" rx="2.16"/><rect class="acf757af-8759-4869-827d-80a161d592a1" x="89.24" y="108.6" width="6.08" height="6.08" rx="2.08"/><rect class="acf757af-8759-4869-827d-80a161d592a1" x="82.6" y="116.36" width="4.96" height="4.96" rx="2"/><rect class="e460a2ea-ac2c-44f3-bc77-9dca6a8cef0c" x="95.88" y="86.44" width="7.2" height="7.2" rx="2.16"/><rect class="e460a2ea-ac2c-44f3-bc77-9dca6a8cef0c" x="89.24" y="94.2" width="6.08" height="6.08" rx="2.08"/><rect class="e460a2ea-ac2c-44f3-bc77-9dca6a8cef0c" x="82.6" y="101.96" width="4.96" height="4.96" rx="2"/><rect class="acf757af-8759-4869-827d-80a161d592a1" x="75.96" y="109.72" width="3.84" height="3.84" rx="1.92"/><rect class="e460a2ea-ac2c-44f3-bc77-9dca6a8cef0c" x="95.88" y="72.05" width="7.2" height="7.2" rx="2.16"/><rect class="e460a2ea-ac2c-44f3-bc77-9dca6a8cef0c" x="89.24" y="79.81" width="6.08" height="6.08" rx="2.08"/><rect class="e460a2ea-ac2c-44f3-bc77-9dca6a8cef0c" x="82.6" y="87.56" width="4.96" height="4.96" rx="2"/><rect class="e460a2ea-ac2c-44f3-bc77-9dca6a8cef0c" x="75.96" y="95.32" width="3.84" height="3.84" rx="1.92"/><rect class="e460a2ea-ac2c-44f3-bc77-9dca6a8cef0c" x="95.88" y="57.65" width="7.2" height="7.2" rx="2.16"/><rect class="e460a2ea-ac2c-44f3-bc77-9dca6a8cef0c" x="89.24" y="65.41" width="6.08" height="6.08" rx="2.08"/><rect class="e460a2ea-ac2c-44f3-bc77-9dca6a8cef0c" x="82.6" y="73.17" width="4.96" height="4.96" rx="2"/><rect class="e460a2ea-ac2c-44f3-bc77-9dca6a8cef0c" x="75.96" y="80.93" width="3.84" height="3.84" rx="1.92"/><rect class="e460a2ea-ac2c-44f3-bc77-9dca6a8cef0c" x="95.88" y="43.25" width="7.2" height="7.2" rx="2.16"/><rect class="e460a2ea-ac2c-44f3-bc77-9dca6a8cef0c" x="89.24" y="51.01" width="6.08" height="6.08" rx="2.08"/><rect class="e460a2ea-ac2c-44f3-bc77-9dca6a8cef0c" x="82.6" y="58.77" width="4.96" height="4.96" rx="2"/><rect class="e460a2ea-ac2c-44f3-bc77-9dca6a8cef0c" x="75.96" y="66.53" width="3.84" height="3.84" rx="1.92"/><rect class="e460a2ea-ac2c-44f3-bc77-9dca6a8cef0c" x="95.88" y="28.86" width="7.2" height="7.2" rx="2.16"/><rect class="e460a2ea-ac2c-44f3-bc77-9dca6a8cef0c" x="89.24" y="36.61" width="6.08" height="6.08" rx="2.08"/><rect class="e460a2ea-ac2c-44f3-bc77-9dca6a8cef0c" x="82.6" y="44.37" width="4.96" height="4.96" rx="2"/><rect class="e460a2ea-ac2c-44f3-bc77-9dca6a8cef0c" x="75.96" y="52.13" width="3.84" height="3.84" rx="1.92"/><rect class="acf757af-8759-4869-827d-80a161d592a1" x="95.88" y="14.46" width="7.2" height="7.2" rx="2.16"/><rect class="e460a2ea-ac2c-44f3-bc77-9dca6a8cef0c" x="89.24" y="22.22" width="6.08" height="6.08" rx="2.08"/><rect class="e460a2ea-ac2c-44f3-bc77-9dca6a8cef0c" x="82.6" y="29.98" width="4.96" height="4.96" rx="2"/><rect class="e460a2ea-ac2c-44f3-bc77-9dca6a8cef0c" x="75.96" y="37.73" width="3.84" height="3.84" rx="1.92"/><rect class="acf757af-8759-4869-827d-80a161d592a1" x="95.88" y="0.06" width="7.2" height="7.2" rx="2.16"/><rect class="acf757af-8759-4869-827d-80a161d592a1" x="89.24" y="7.82" width="6.08" height="6.08" rx="2.08"/><rect class="e460a2ea-ac2c-44f3-bc77-9dca6a8cef0c" x="82.6" y="15.58" width="4.96" height="4.96" rx="2"/><rect class="e460a2ea-ac2c-44f3-bc77-9dca6a8cef0c" x="75.96" y="23.34" width="3.84" height="3.84" rx="1.92"/><rect class="acf757af-8759-4869-827d-80a161d592a1" x="82.6" y="1.18" width="4.96" height="4.96" rx="2"/><rect class="acf757af-8759-4869-827d-80a161d592a1" x="75.96" y="8.94" width="3.84" height="3.84" rx="1.92"/><rect x="103.08" y="0.06" width="7.2" height="7.2" rx="2.16"/><rect x="103.08" y="14.46" width="7.2" height="7.2" rx="2.16"/><rect x="110.83" y="7.82" width="6.08" height="6.08" rx="2.08"/><rect x="118.59" y="1.18" width="4.96" height="4.96" rx="2"/><rect class="acf757af-8759-4869-827d-80a161d592a1" x="103.08" y="28.86" width="7.2" height="7.2" rx="2.16"/><rect x="110.83" y="22.22" width="6.08" height="6.08" rx="2.08"/><rect x="118.59" y="15.58" width="4.96" height="4.96" rx="2"/><rect x="126.35" y="8.94" width="3.84" height="3.84" rx="1.92"/><rect class="acf757af-8759-4869-827d-80a161d592a1" x="103.08" y="43.25" width="7.2" height="7.2" rx="2.16"/><rect class="acf757af-8759-4869-827d-80a161d592a1" x="110.83" y="36.61" width="6.08" height="6.08" rx="2.08"/><rect x="118.59" y="29.98" width="4.96" height="4.96" rx="2"/><rect x="126.35" y="23.34" width="3.84" height="3.84" rx="1.92"/><rect class="acf757af-8759-4869-827d-80a161d592a1" x="103.08" y="57.65" width="7.2" height="7.2" rx="2.16"/><rect class="acf757af-8759-4869-827d-80a161d592a1" x="110.83" y="51.01" width="6.08" height="6.08" rx="2.08"/><rect x="118.59" y="44.37" width="4.96" height="4.96" rx="2"/><rect x="126.35" y="37.73" width="3.84" height="3.84" rx="1.92"/><rect class="acf757af-8759-4869-827d-80a161d592a1" x="103.08" y="72.05" width="7.2" height="7.2" rx="2.16"/><rect class="acf757af-8759-4869-827d-80a161d592a1" x="110.83" y="65.41" width="6.08" height="6.08" rx="2.08"/><rect x="118.59" y="58.77" width="4.96" height="4.96" rx="2"/><rect x="126.35" y="52.13" width="3.84" height="3.84" rx="1.92"/><rect class="acf757af-8759-4869-827d-80a161d592a1" x="103.08" y="86.44" width="7.2" height="7.2" rx="2.16"/><rect class="acf757af-8759-4869-827d-80a161d592a1" x="110.83" y="79.81" width="6.08" height="6.08" rx="2.08"/><rect x="118.59" y="73.17" width="4.96" height="4.96" rx="2"/><rect x="126.35" y="66.53" width="3.84" height="3.84" rx="1.92"/><rect x="103.08" y="100.84" width="7.2" height="7.2" rx="2.16"/><rect x="110.83" y="94.2" width="6.08" height="6.08" rx="2.08"/><rect x="118.59" y="87.56" width="4.96" height="4.96" rx="2"/><rect x="126.35" y="80.93" width="3.84" height="3.84" rx="1.92"/><rect x="103.08" y="115.24" width="7.2" height="7.2" rx="2.16"/><rect x="110.83" y="108.6" width="6.08" height="6.08" rx="2.08"/><rect x="118.59" y="101.96" width="4.96" height="4.96" rx="2"/><rect x="126.35" y="95.32" width="3.84" height="3.84" rx="1.92"/><rect x="118.59" y="116.36" width="4.96" height="4.96" rx="2"/><rect x="126.35" y="109.72" width="3.84" height="3.84" rx="1.92"/><rect class="acf757af-8759-4869-827d-80a161d592a1" x="103.08" y="7.26" width="7.2" height="7.2" rx="2.16"/><rect class="acf757af-8759-4869-827d-80a161d592a1" x="103.08" y="21.66" width="7.2" height="7.2" rx="2.16"/><rect class="e460a2ea-ac2c-44f3-bc77-9dca6a8cef0c" x="103.08" y="36.06" width="7.2" height="7.2" rx="2.16"/><rect class="e460a2ea-ac2c-44f3-bc77-9dca6a8cef0c" x="103.08" y="50.45" width="7.2" height="7.2" rx="2.16"/><rect class="e460a2ea-ac2c-44f3-bc77-9dca6a8cef0c" x="103.08" y="64.85" width="7.2" height="7.2" rx="2.16"/><rect class="e460a2ea-ac2c-44f3-bc77-9dca6a8cef0c" x="103.08" y="79.25" width="7.2" height="7.2" rx="2.16"/><rect class="acf757af-8759-4869-827d-80a161d592a1" x="103.08" y="93.64" width="7.2" height="7.2" rx="2.16"/><rect class="acf757af-8759-4869-827d-80a161d592a1" x="103.08" y="108.04" width="7.2" height="7.2" rx="2.16"/></g></g></g></svg>